<?xml version="1.0" encoding="UTF-8" standalone="no"?>
<!-- Created with Inkscape (http://www.inkscape.org/) -->

<svg
   version="1.1"
   id="svg2"
   xml:space="preserve"
   width="678.2431"
   height="857.79529"
   viewBox="0 0 678.2431 857.79529"
   sodipodi:docname="how-to-find-sources.svg"
   inkscape:version="1.1.1 (3bf5ae0d25, 2021-09-20)"
   xmlns:inkscape="http://www.inkscape.org/namespaces/inkscape"
   xmlns:sodipodi="http://sodipodi.sourceforge.net/DTD/sodipodi-0.dtd"
   xmlns="http://www.w3.org/2000/svg"
   xmlns:svg="http://www.w3.org/2000/svg"><defs
     id="defs6" /><sodipodi:namedview
     id="namedview4"
     pagecolor="#ffffff"
     bordercolor="#999999"
     borderopacity="1"
     inkscape:pageshadow="0"
     inkscape:pageopacity="0"
     inkscape:pagecheckerboard="0"
     showgrid="false"
     inkscape:zoom="0.83819532"
     inkscape:cx="339.41969"
     inkscape:cy="428.89764"
     inkscape:window-width="2560"
     inkscape:window-height="1369"
     inkscape:window-x="-8"
     inkscape:window-y="-8"
     inkscape:window-maximized="1"
     inkscape:current-layer="g10" /><g
     id="g8"
     inkscape:groupmode="layer"
     inkscape:label="ManySourceHowToFindNoText"
     transform="matrix(1.3333333,0,0,1.3333333,0,1.6778215e-5)"><g
       id="g10"><path
         d="m 243.547,557.117 c 0,9.91 -8.942,17.946 -19.973,17.946 -11.031,0 -19.976,-8.036 -19.976,-17.946 0,-9.91 8.945,-17.945 19.976,-17.945 11.031,0 19.973,8.035 19.973,17.945 z"
         style="fill:#010002;fill-opacity:1;fill-rule:nonzero;stroke:none"
         id="path12" /><path
         d="m 232.402,583.793 h -17.66 c -11.691,0 -21.168,8.512 -21.168,19.02 v 26.359 h 60 v -26.359 c 0,-10.508 -9.48,-19.02 -21.172,-19.02 z"
         style="fill:#010002;fill-opacity:1;fill-rule:nonzero;stroke:none"
         id="path14" /><g
         id="g16"><path
           d="m 223.574,464.238 v 52.309"
           style="fill:none;stroke:#006ca9;stroke-width:2.18779;stroke-linecap:butt;stroke-linejoin:miter;stroke-miterlimit:4;stroke-dasharray:8.75115, 8.75115;stroke-dashoffset:0;stroke-opacity:0.913725"
           id="path18" /></g><g
         id="g20"
         transform="rotate(-90)"><path
           d="m -457.926,223.574 -9.465,5.469 v -10.941 z"
           style="fill:#006ca9;fill-opacity:1;fill-rule:evenodd;stroke:#006ca9;stroke-width:1.45853;stroke-linecap:butt;stroke-linejoin:miter;stroke-miterlimit:4;stroke-dasharray:none;stroke-opacity:1"
           id="path22" /></g><g
         id="g24"
         transform="rotate(90)"><path
           d="m 522.859,-223.574 -9.464,5.472 v -10.941 z"
           style="fill:#006ca9;fill-opacity:1;fill-rule:evenodd;stroke:#006ca9;stroke-width:1.45853;stroke-linecap:butt;stroke-linejoin:miter;stroke-miterlimit:4;stroke-dasharray:none;stroke-opacity:1"
           id="path26" /></g><text
         transform="translate(258.41514,522.60969)"
         style="font-variant:normal;font-weight:normal;font-size:79.9999px;font-family:Roboto;-inkscape-font-specification:Roboto-Regular;writing-mode:lr-tb;fill:#000000;fill-opacity:1;fill-rule:nonzero;stroke:none"
         id="text30"><tspan
           x="0"
           y="0"
           id="tspan28">?</tspan></text><path
         d="m 134.504,55.824 c 1.809,-0.629 3.203,-1.344 4.07,-2.054 0.598,-0.489 0.785,-0.805 0.785,-0.934 0,-0.129 -0.187,-0.445 -0.785,-0.938 -0.867,-0.707 -2.254,-1.421 -4.07,-2.05 -3.965,-1.375 -9.457,-2.18 -15.344,-2.18 -5.887,0 -11.379,0.809 -15.347,2.18 -1.809,0.629 -3.2,1.343 -4.067,2.054 -0.598,0.489 -0.785,0.801 -0.785,0.934 0,0.129 0.187,0.445 0.785,0.937 0.867,0.707 2.254,1.422 4.067,2.051 3.968,1.375 9.46,2.18 15.347,2.18 5.887,0 11.379,-0.809 15.344,-2.18 z m -36.84,14.332 v 7.496 c 2.207,2.328 8.152,5.164 15.41,6.012 10.641,1.238 20.715,-1.086 27.555,-5.723 l 0.027,-7.66 c -7.289,4.285 -17.547,6.086 -27.922,4.871 -6.421,-0.742 -11.89,-2.679 -15.074,-4.996 z m 0,-4.683 c 2.211,2.324 8.152,5.16 15.41,6.004 10.66,1.242 20.758,-1.09 27.598,-5.747 l 0.031,-8.496 c -4.355,2.551 -12.371,4.266 -21.543,4.266 -9.137,0 -17.125,-1.703 -21.484,-4.238 -0.004,2.738 -0.008,5.472 -0.012,8.207 z m 0.008,16.871 0.016,6.293 -0.063,-0.438 c 1.301,4.309 9.621,7.77 22.008,7.77 6.746,0 12.035,-1.02 16.097,-3.031 1.141,-0.567 2.012,-1.043 2.864,-1.665 0.562,-0.414 0.933,-0.664 1.543,-1.199 0.629,-0.558 1.601,-0.422 2.164,0.211 0.554,0.629 0.629,1.649 0,2.211 -0.684,0.598 -1,0.863 -1.664,1.348 -0.992,0.726 -2.121,1.48 -3.426,2.125 -4.484,2.219 -9.059,3.543 -17.578,3.543 -14.195,0 -23.582,-4.492 -25.379,-10.43 L 94.191,88.867 V 88.648 L 94.164,79.66 c -0.012,-8.84 -0.004,-17.68 0.02,-26.519 -0.012,-0.102 -0.016,-0.203 -0.016,-0.305 0.004,-4.785 11.191,-8.664 24.992,-8.664 13.797,0 24.985,3.879 24.985,8.664 0.003,0.187 -0.012,0.375 -0.047,0.559 0.043,0.132 0.062,0.273 0.062,0.41 l -0.101,30.289 c 0,0.844 -0.778,1.523 -1.731,1.519 -0.953,0 -1.723,-0.687 -1.719,-1.531 v -1.594 c -7.281,4.262 -17.523,6.059 -27.875,4.852 -6.414,-0.75 -11.882,-2.68 -15.066,-4.996 z M 136.578,65.41 c -0.824,0.008 -1.5,-0.656 -1.512,-1.48 0,-0.817 0.684,-1.477 1.516,-1.477 0.836,0 1.516,0.66 1.516,1.477 0,0.82 -0.68,1.48 -1.516,1.48 z m 0,12.188 c -0.824,0.007 -1.5,-0.657 -1.512,-1.481 0,-0.82 0.684,-1.484 1.516,-1.484 0.836,0 1.516,0.664 1.516,1.484 0,0.817 -0.68,1.481 -1.516,1.481 z m 0,12.343 c -0.828,0.008 -1.504,-0.656 -1.512,-1.484 0,-0.816 0.684,-1.48 1.516,-1.48 0.836,0 1.516,0.664 1.516,1.48 0,0.816 -0.68,1.481 -1.516,1.481 z"
         style="fill:#000000;fill-opacity:1;fill-rule:nonzero;stroke:none"
         id="path32" /><path
         d="m 54.52,162.5 c 1.808,-0.629 3.199,-1.348 4.07,-2.059 0.594,-0.484 0.781,-0.8 0.781,-0.929 0,-0.129 -0.187,-0.449 -0.781,-0.938 -0.871,-0.707 -2.258,-1.422 -4.07,-2.051 -3.969,-1.375 -9.457,-2.179 -15.348,-2.179 -5.887,0 -11.375,0.808 -15.344,2.179 -1.808,0.629 -3.199,1.344 -4.07,2.055 -0.594,0.485 -0.781,0.801 -0.781,0.934 0,0.125 0.187,0.445 0.781,0.937 0.871,0.703 2.258,1.422 4.07,2.051 3.969,1.375 9.457,2.18 15.344,2.18 5.891,0 11.379,-0.809 15.348,-2.18 z m -36.844,14.332 v 7.496 c 2.211,2.328 8.152,5.164 15.41,6.012 10.641,1.238 20.719,-1.086 27.559,-5.723 l 0.027,-7.66 c -7.289,4.285 -17.547,6.086 -27.922,4.871 -6.422,-0.742 -11.895,-2.68 -15.078,-4.996 z m 0,-4.684 c 2.215,2.325 8.152,5.161 15.41,6.004 10.664,1.243 20.762,-1.089 27.602,-5.746 l 0.031,-8.496 c -4.356,2.551 -12.371,4.262 -21.547,4.262 -9.133,0 -17.125,-1.699 -21.481,-4.234 -0.007,2.734 -0.011,5.472 -0.011,8.207 z m 0.008,16.872 0.019,6.289 -0.062,-0.434 c 1.3,4.309 9.617,7.77 22.004,7.77 6.75,0 12.035,-1.024 16.101,-3.032 1.141,-0.566 2.008,-1.043 2.859,-1.664 0.567,-0.414 0.938,-0.664 1.547,-1.199 0.629,-0.559 1.598,-0.422 2.161,0.211 0.558,0.625 0.628,1.648 0,2.211 -0.68,0.594 -1,0.863 -1.665,1.348 -0.992,0.726 -2.121,1.476 -3.421,2.125 -4.489,2.218 -9.059,3.543 -17.582,3.543 -14.196,0 -23.582,-4.493 -25.379,-10.43 l -0.063,-0.215 v -0.219 l -0.023,-8.988 c -0.012,-8.84 -0.004,-17.68 0.019,-26.52 -0.011,-0.101 -0.019,-0.203 -0.019,-0.304 0.008,-4.785 11.191,-8.664 24.992,-8.664 13.801,0 24.988,3.879 24.988,8.664 0,0.187 -0.015,0.371 -0.047,0.558 0.039,0.133 0.059,0.27 0.059,0.41 l -0.098,30.29 c -0.004,0.839 -0.777,1.523 -1.73,1.519 -0.957,0 -1.727,-0.687 -1.723,-1.535 v -1.59 c -7.277,4.262 -17.519,6.059 -27.871,4.852 -6.414,-0.75 -11.887,-2.68 -15.07,-4.996 z m 38.91,-16.934 c -0.828,0.008 -1.504,-0.656 -1.512,-1.481 0,-0.82 0.68,-1.476 1.516,-1.476 0.832,0 1.515,0.656 1.515,1.476 0,0.821 -0.683,1.481 -1.515,1.481 z m 0,12.187 c -0.828,0.008 -1.504,-0.656 -1.512,-1.48 0,-0.82 0.68,-1.484 1.516,-1.484 0.832,0 1.515,0.664 1.515,1.484 0,0.816 -0.683,1.48 -1.515,1.48 z m 0,12.344 c -0.828,0.008 -1.504,-0.656 -1.512,-1.484 0,-0.82 0.68,-1.485 1.516,-1.485 0.832,0 1.515,0.665 1.515,1.485 0,0.816 -0.683,1.48 -1.515,1.48 z"
         style="fill:#000000;fill-opacity:1;fill-rule:nonzero;stroke:none"
         id="path34" /><path
         d="m 207.242,221.23 c 1.809,-0.628 3.203,-1.343 4.071,-2.054 0.597,-0.485 0.781,-0.805 0.781,-0.934 0,-0.125 -0.184,-0.445 -0.781,-0.933 -0.868,-0.707 -2.258,-1.422 -4.071,-2.055 -3.965,-1.375 -9.457,-2.18 -15.344,-2.18 -5.886,0 -11.378,0.813 -15.347,2.18 -1.809,0.633 -3.199,1.348 -4.067,2.059 -0.597,0.484 -0.785,0.8 -0.785,0.929 0,0.129 0.188,0.449 0.785,0.938 0.868,0.707 2.254,1.422 4.067,2.05 3.969,1.375 9.461,2.18 15.347,2.18 5.887,0 11.379,-0.808 15.344,-2.18 z m -36.84,14.333 v 7.5 c 2.207,2.328 8.149,5.16 15.407,6.007 10.644,1.239 20.718,-1.086 27.558,-5.718 l 0.028,-7.664 c -7.29,4.285 -17.547,6.085 -27.922,4.875 -6.422,-0.747 -11.891,-2.684 -15.075,-5 z m 0,-4.68 c 2.211,2.324 8.149,5.16 15.407,6 10.664,1.246 20.761,-1.09 27.601,-5.746 l 0.031,-8.496 c -4.355,2.554 -12.371,4.265 -21.543,4.265 -9.136,0 -17.125,-1.703 -21.484,-4.234 -0.004,2.734 -0.008,5.469 -0.012,8.207 z m 0.008,16.867 0.016,6.293 -0.063,-0.434 c 1.301,4.309 9.621,7.77 22.008,7.77 6.746,0 12.031,-1.024 16.098,-3.031 1.14,-0.567 2.008,-1.043 2.859,-1.664 0.567,-0.414 0.938,-0.664 1.547,-1.204 0.629,-0.554 1.602,-0.421 2.164,0.215 0.555,0.625 0.629,1.649 0,2.207 -0.684,0.598 -1.004,0.868 -1.668,1.352 -0.988,0.723 -2.117,1.476 -3.422,2.125 -4.484,2.215 -9.058,3.539 -17.578,3.539 -14.199,0 -23.582,-4.488 -25.379,-10.43 l -0.066,-0.211 v -0.222 l -0.024,-8.985 c -0.011,-8.84 -0.004,-17.679 0.02,-26.519 -0.012,-0.102 -0.016,-0.203 -0.016,-0.309 0.004,-4.781 11.192,-8.66 24.989,-8.66 13.8,0 24.988,3.879 24.988,8.66 0,0.188 -0.016,0.375 -0.047,0.559 0.043,0.133 0.062,0.273 0.059,0.414 l -0.098,30.285 c 0,0.844 -0.777,1.523 -1.731,1.52 -0.953,0 -1.726,-0.684 -1.718,-1.532 v -1.593 c -7.282,4.261 -17.524,6.058 -27.875,4.855 -6.414,-0.75 -11.883,-2.684 -15.071,-5 z m 38.906,-16.934 c -0.828,0.008 -1.503,-0.652 -1.511,-1.48 0,-0.816 0.679,-1.477 1.515,-1.477 0.836,0 1.516,0.661 1.516,1.477 0,0.824 -0.68,1.48 -1.516,1.48 z m 0,12.188 c -0.828,0.008 -1.503,-0.652 -1.511,-1.481 0,-0.816 0.679,-1.48 1.515,-1.48 0.836,0 1.516,0.664 1.516,1.48 0,0.817 -0.68,1.481 -1.516,1.481 z m 0,12.348 c -0.828,0.003 -1.503,-0.661 -1.511,-1.489 0,-0.816 0.679,-1.48 1.515,-1.48 0.836,0 1.516,0.664 1.516,1.48 0,0.817 -0.68,1.481 -1.516,1.481 z"
         style="fill:#000000;fill-opacity:1;fill-rule:nonzero;stroke:none"
         id="path36" /><path
         d="m 161.852,325.246 c 1.808,-0.633 3.199,-1.348 4.07,-2.058 0.594,-0.485 0.781,-0.805 0.781,-0.93 0,-0.129 -0.187,-0.449 -0.781,-0.938 -0.871,-0.707 -2.258,-1.422 -4.07,-2.05 -3.969,-1.375 -9.461,-2.18 -15.348,-2.18 -5.887,0 -11.379,0.808 -15.344,2.18 -1.808,0.628 -3.203,1.343 -4.07,2.054 -0.598,0.485 -0.781,0.801 -0.781,0.934 0,0.125 0.187,0.445 0.781,0.937 0.867,0.703 2.258,1.418 4.07,2.051 3.965,1.375 9.457,2.18 15.344,2.18 5.887,0 11.379,-0.809 15.348,-2.18 z m -36.844,14.332 v 7.496 c 2.211,2.328 8.152,5.164 15.41,6.012 10.641,1.238 20.719,-1.086 27.559,-5.723 L 168,339.699 c -7.285,4.289 -17.543,6.09 -27.918,4.875 -6.426,-0.742 -11.894,-2.679 -15.078,-4.996 z m 0,-4.683 c 2.215,2.324 8.152,5.16 15.41,6.003 10.664,1.243 20.762,-1.089 27.602,-5.746 l 0.027,-8.5 c -4.352,2.555 -12.367,4.266 -21.543,4.266 -9.133,0 -17.125,-1.703 -21.484,-4.234 l -0.008,8.207 z m 0.008,16.871 0.019,6.289 -0.066,-0.434 c 1.304,4.309 9.621,7.77 22.008,7.77 6.746,0 12.035,-1.024 16.101,-3.032 1.141,-0.566 2.008,-1.043 2.86,-1.664 0.566,-0.414 0.937,-0.664 1.542,-1.199 0.633,-0.558 1.602,-0.422 2.165,0.211 0.558,0.625 0.628,1.648 0,2.211 -0.68,0.594 -1,0.863 -1.665,1.348 -0.992,0.722 -2.121,1.476 -3.421,2.125 -3.329,1.644 -6.704,2.797 -11.704,3.285 -1.742,0.168 -3.679,0.258 -5.878,0.258 -14.196,0 -23.582,-4.493 -25.379,-10.43 l -0.063,-0.215 v -0.219 l -0.027,-8.988 c -0.008,-8.84 0,-17.68 0.023,-26.519 -0.011,-0.102 -0.019,-0.204 -0.019,-0.305 0.008,-4.785 11.191,-8.664 24.992,-8.664 13.801,0 24.988,3.879 24.988,8.664 0,0.187 -0.015,0.371 -0.047,0.558 0.039,0.133 0.059,0.27 0.059,0.411 l -0.098,30.289 c -0.004,0.839 -0.781,1.523 -1.734,1.519 -0.953,0 -1.723,-0.687 -1.719,-1.535 v -1.59 c -7.277,4.262 -17.519,6.059 -27.871,4.852 -6.418,-0.75 -11.887,-2.68 -15.07,-4.996 z m 38.906,-16.934 c -0.824,0.004 -1.5,-0.656 -1.508,-1.48 0,-0.821 0.68,-1.481 1.516,-1.481 0.832,0 1.511,0.66 1.511,1.481 0,0.82 -0.679,1.48 -1.511,1.48 z m 0,12.188 c -0.824,0.007 -1.5,-0.657 -1.508,-1.485 0,-0.816 0.68,-1.48 1.516,-1.48 0.832,0 1.511,0.664 1.511,1.48 0,0.82 -0.679,1.485 -1.511,1.485 z m 0,12.343 c -0.824,0.004 -1.504,-0.66 -1.508,-1.484 0,-0.82 0.68,-1.484 1.516,-1.484 0.832,0 1.511,0.664 1.511,1.484 0,0.816 -0.679,1.48 -1.511,1.48 z"
         style="fill:#000000;fill-opacity:1;fill-rule:nonzero;stroke:none"
         id="path38" /><path
         d="m 387.262,334.07 c 1.808,-0.632 3.199,-1.347 4.066,-2.058 0.598,-0.485 0.785,-0.805 0.785,-0.93 0,-0.129 -0.187,-0.449 -0.785,-0.937 -0.867,-0.707 -2.254,-1.422 -4.066,-2.051 -3.969,-1.375 -9.461,-2.18 -15.348,-2.18 -5.887,0 -11.379,0.809 -15.344,2.18 -1.808,0.629 -3.203,1.344 -4.07,2.054 -0.598,0.485 -0.785,0.801 -0.785,0.934 0,0.125 0.187,0.445 0.785,0.934 0.867,0.707 2.254,1.422 4.07,2.054 3.965,1.375 9.457,2.18 15.344,2.18 5.887,0 11.379,-0.812 15.348,-2.18 z m -36.844,14.332 v 7.496 c 2.211,2.329 8.152,5.165 15.41,6.008 10.641,1.239 20.715,-1.082 27.559,-5.718 l 0.023,-7.665 c -7.285,4.29 -17.547,6.09 -27.918,4.875 -6.426,-0.746 -11.894,-2.683 -15.078,-4.996 z m 0,-4.683 c 2.215,2.324 8.152,5.16 15.41,6 10.664,1.246 20.758,-1.086 27.602,-5.746 l 0.027,-8.496 c -4.355,2.554 -12.371,4.265 -21.543,4.265 -9.133,0 -17.125,-1.703 -21.484,-4.234 -0.004,2.734 -0.008,5.472 -0.012,8.207 z m 0.008,16.871 0.019,6.289 -0.066,-0.434 c 1.305,4.309 9.621,7.77 22.008,7.77 6.746,0 12.035,-1.024 16.097,-3.031 1.141,-0.567 2.012,-1.043 2.864,-1.664 0.566,-0.415 0.933,-0.665 1.543,-1.2 0.632,-0.558 1.601,-0.422 2.164,0.211 0.558,0.625 0.629,1.649 0,2.211 -0.68,0.594 -1,0.863 -1.664,1.348 -0.993,0.723 -2.121,1.476 -3.422,2.125 -4.489,2.219 -9.059,3.539 -17.582,3.539 -14.196,0 -23.582,-4.488 -25.379,-10.426 l -0.063,-0.215 v -0.222 l -0.027,-8.985 c -0.008,-8.84 -0.004,-17.679 0.02,-26.519 -0.008,-0.102 -0.016,-0.203 -0.016,-0.305 0.004,-4.785 11.191,-8.664 24.992,-8.664 13.801,0 24.984,3.879 24.984,8.664 0.004,0.184 -0.011,0.371 -0.046,0.555 0.043,0.136 0.062,0.273 0.062,0.414 l -0.098,30.285 c -0.003,0.844 -0.781,1.527 -1.734,1.519 -0.953,0 -1.723,-0.683 -1.719,-1.531 v -1.59 c -7.277,4.258 -17.519,6.055 -27.875,4.852 -6.414,-0.75 -11.883,-2.684 -15.066,-4.996 z m 38.906,-16.934 c -0.824,0.004 -1.5,-0.656 -1.512,-1.484 0,-0.817 0.684,-1.477 1.516,-1.477 0.836,0 1.516,0.66 1.516,1.477 0,0.824 -0.68,1.484 -1.516,1.484 z m 0,12.188 c -0.824,0.004 -1.5,-0.656 -1.512,-1.485 0,-0.816 0.684,-1.48 1.516,-1.48 0.836,0 1.516,0.664 1.516,1.48 0,0.821 -0.68,1.485 -1.516,1.485 z m 0,12.344 c -0.828,0.007 -1.504,-0.661 -1.512,-1.489 0,-0.816 0.684,-1.48 1.516,-1.48 0.836,0 1.516,0.664 1.516,1.48 0,0.821 -0.68,1.485 -1.516,1.485 z"
         style="fill:#000000;fill-opacity:1;fill-rule:nonzero;stroke:none"
         id="path40" /><path
         d="m 296.852,130.246 c 1.808,-0.633 3.199,-1.348 4.07,-2.058 0.594,-0.485 0.781,-0.805 0.781,-0.93 0,-0.129 -0.187,-0.449 -0.781,-0.938 -0.871,-0.707 -2.258,-1.422 -4.07,-2.05 -3.969,-1.375 -9.461,-2.18 -15.348,-2.18 -5.887,0 -11.379,0.808 -15.344,2.18 -1.808,0.628 -3.203,1.343 -4.07,2.054 -0.598,0.485 -0.781,0.801 -0.781,0.934 0,0.125 0.187,0.445 0.781,0.937 0.867,0.703 2.258,1.418 4.07,2.051 3.965,1.375 9.457,2.18 15.344,2.18 5.887,0 11.379,-0.809 15.348,-2.18 z m -36.844,14.332 v 7.496 c 2.211,2.328 8.152,5.164 15.41,6.012 10.641,1.238 20.719,-1.086 27.559,-5.723 L 303,144.699 c -7.285,4.289 -17.543,6.09 -27.918,4.875 -6.426,-0.742 -11.894,-2.679 -15.078,-4.996 z m 0,-4.683 c 2.215,2.324 8.152,5.16 15.41,6.003 10.664,1.243 20.762,-1.089 27.602,-5.746 l 0.027,-8.5 c -4.352,2.555 -12.367,4.266 -21.543,4.266 -9.133,0 -17.125,-1.703 -21.484,-4.234 -0.004,2.734 -0.008,5.472 -0.008,8.207 z m 0.008,16.871 0.019,6.289 -0.066,-0.434 c 1.304,4.309 9.621,7.77 22.008,7.77 6.746,0 12.035,-1.024 16.101,-3.032 1.141,-0.566 2.008,-1.043 2.86,-1.664 0.566,-0.414 0.937,-0.664 1.542,-1.199 0.633,-0.558 1.602,-0.422 2.165,0.211 0.558,0.625 0.628,1.648 0,2.211 -0.68,0.594 -1,0.863 -1.665,1.348 -0.992,0.722 -2.121,1.476 -3.421,2.125 -4.489,2.218 -9.059,3.543 -17.582,3.543 -14.196,0 -23.582,-4.493 -25.379,-10.43 l -0.063,-0.215 v -0.219 l -0.027,-8.988 c -0.008,-8.84 -0.004,-17.68 0.023,-26.519 -0.011,-0.102 -0.019,-0.204 -0.019,-0.305 0.008,-4.785 11.191,-8.664 24.992,-8.664 13.801,0 24.988,3.879 24.988,8.664 0,0.187 -0.015,0.371 -0.047,0.558 0.039,0.133 0.059,0.27 0.059,0.411 l -0.098,30.289 c -0.004,0.839 -0.781,1.523 -1.734,1.519 -0.953,0 -1.723,-0.687 -1.719,-1.535 v -1.59 c -7.277,4.262 -17.519,6.055 -27.871,4.852 -6.418,-0.75 -11.887,-2.68 -15.07,-4.996 z m 38.906,-16.934 c -0.824,0.008 -1.5,-0.656 -1.508,-1.48 0,-0.821 0.68,-1.481 1.516,-1.481 0.832,0 1.511,0.66 1.511,1.481 0,0.82 -0.679,1.48 -1.511,1.48 z m 0,12.188 c -0.824,0.007 -1.5,-0.657 -1.508,-1.485 0,-0.816 0.68,-1.48 1.516,-1.48 0.832,0 1.511,0.664 1.511,1.48 0,0.82 -0.679,1.485 -1.511,1.485 z m 0,12.343 c -0.824,0.008 -1.504,-0.66 -1.508,-1.484 0,-0.82 0.68,-1.484 1.516,-1.484 0.832,0 1.511,0.664 1.511,1.484 0,0.816 -0.679,1.48 -1.511,1.48 z"
         style="fill:#000000;fill-opacity:1;fill-rule:nonzero;stroke:none"
         id="path42" /><path
         d="m 314.504,25.824 c 1.812,-0.629 3.203,-1.344 4.07,-2.054 0.598,-0.489 0.785,-0.805 0.785,-0.934 0,-0.129 -0.187,-0.445 -0.785,-0.938 -0.867,-0.707 -2.254,-1.421 -4.07,-2.05 -3.965,-1.375 -9.457,-2.18 -15.344,-2.18 -5.887,0 -11.379,0.809 -15.347,2.18 -1.809,0.629 -3.2,1.343 -4.067,2.054 -0.598,0.489 -0.785,0.801 -0.785,0.934 0,0.129 0.187,0.445 0.785,0.937 0.867,0.707 2.254,1.422 4.067,2.051 3.968,1.375 9.46,2.18 15.347,2.18 5.887,0 11.379,-0.809 15.344,-2.18 z m -36.84,14.332 v 7.496 c 2.207,2.328 8.152,5.164 15.41,6.012 10.641,1.238 20.715,-1.086 27.555,-5.723 l 0.027,-7.66 c -7.289,4.285 -17.547,6.086 -27.922,4.871 -6.421,-0.742 -11.89,-2.679 -15.074,-4.996 z m 0,-4.683 c 2.211,2.324 8.152,5.16 15.41,6.004 10.66,1.242 20.758,-1.09 27.598,-5.747 l 0.031,-8.496 c -4.355,2.551 -12.371,4.266 -21.543,4.266 -9.137,0 -17.125,-1.703 -21.484,-4.238 -0.004,2.738 -0.008,5.472 -0.012,8.207 z m 0.008,16.871 0.016,6.293 -0.063,-0.438 c 1.301,4.309 9.621,7.77 22.008,7.77 6.746,0 12.035,-1.02 16.097,-3.031 1.141,-0.567 2.012,-1.043 2.864,-1.665 0.562,-0.414 0.933,-0.664 1.543,-1.199 0.629,-0.558 1.601,-0.422 2.164,0.211 0.554,0.629 0.629,1.649 0,2.211 -0.684,0.598 -1,0.863 -1.664,1.348 -0.992,0.726 -2.121,1.48 -3.426,2.125 -4.484,2.219 -9.055,3.543 -17.578,3.543 -14.195,0 -23.582,-4.492 -25.379,-10.43 l -0.063,-0.215 v -0.219 l -0.027,-8.988 c -0.012,-8.84 -0.004,-17.68 0.02,-26.519 -0.012,-0.102 -0.016,-0.203 -0.016,-0.305 0.004,-4.785 11.191,-8.664 24.992,-8.664 13.797,0 24.985,3.879 24.985,8.664 0.003,0.187 -0.012,0.375 -0.047,0.559 0.043,0.132 0.062,0.273 0.062,0.41 l -0.101,30.289 c 0,0.844 -0.778,1.523 -1.731,1.519 -0.953,0 -1.723,-0.687 -1.719,-1.531 v -1.594 c -7.281,4.262 -17.523,6.059 -27.875,4.852 -6.414,-0.75 -11.882,-2.68 -15.066,-4.996 z M 316.578,35.41 c -0.824,0.008 -1.5,-0.656 -1.512,-1.48 0,-0.817 0.684,-1.477 1.516,-1.477 0.836,0 1.516,0.66 1.516,1.477 0,0.82 -0.68,1.48 -1.516,1.48 z m 0,12.188 c -0.824,0.007 -1.5,-0.657 -1.512,-1.481 0,-0.82 0.684,-1.484 1.516,-1.484 0.836,0 1.516,0.664 1.516,1.484 0,0.817 -0.68,1.481 -1.516,1.481 z m 0,12.343 c -0.828,0.008 -1.504,-0.656 -1.512,-1.484 0,-0.816 0.684,-1.48 1.516,-1.48 0.836,0 1.516,0.664 1.516,1.48 0,0.816 -0.68,1.481 -1.516,1.481 z"
         style="fill:#000000;fill-opacity:1;fill-rule:nonzero;stroke:none"
         id="path44" /><path
         d="m 462.188,66.566 c 1.808,-0.628 3.199,-1.343 4.07,-2.054 0.594,-0.485 0.781,-0.805 0.781,-0.934 0,-0.125 -0.187,-0.445 -0.781,-0.933 -0.871,-0.707 -2.258,-1.422 -4.07,-2.055 -3.969,-1.375 -9.461,-2.18 -15.348,-2.18 -5.887,0 -11.375,0.809 -15.344,2.18 -1.808,0.633 -3.203,1.348 -4.07,2.058 -0.594,0.485 -0.781,0.797 -0.781,0.93 0,0.129 0.187,0.449 0.781,0.938 0.867,0.707 2.258,1.422 4.07,2.05 3.969,1.375 9.457,2.18 15.344,2.18 5.887,0 11.379,-0.808 15.348,-2.18 z m -36.844,14.332 v 7.497 c 2.211,2.328 8.152,5.164 15.41,6.011 10.641,1.239 20.719,-1.086 27.559,-5.722 l 0.023,-7.661 c -7.285,4.286 -17.543,6.086 -27.918,4.875 -6.422,-0.746 -11.895,-2.683 -15.078,-5 z m 0,-4.679 c 2.215,2.324 8.152,5.156 15.41,6 10.664,1.242 20.762,-1.09 27.601,-5.746 l 0.028,-8.496 c -4.352,2.554 -12.367,4.265 -21.543,4.265 -9.133,0 -17.125,-1.703 -21.481,-4.234 -0.007,2.734 -0.011,5.469 -0.011,8.207 z m 0.008,16.867 0.019,6.293 -0.066,-0.434 c 1.304,4.305 9.621,7.766 22.008,7.766 6.75,0 12.035,-1.02 16.101,-3.027 1.141,-0.567 2.008,-1.043 2.859,-1.668 0.567,-0.411 0.938,-0.664 1.547,-1.2 0.629,-0.558 1.598,-0.421 2.16,0.215 0.559,0.625 0.629,1.645 0,2.207 -0.679,0.598 -1,0.864 -1.664,1.352 -0.992,0.723 -2.121,1.476 -3.421,2.121 -4.489,2.219 -9.059,3.543 -17.582,3.543 -14.196,0 -23.583,-4.492 -25.379,-10.43 l -0.063,-0.211 v -0.222 l -0.023,-8.985 c -0.012,-8.84 -0.004,-17.679 0.019,-26.519 -0.012,-0.102 -0.019,-0.207 -0.019,-0.309 0.007,-4.785 11.191,-8.66 24.992,-8.66 13.801,0 24.988,3.875 24.988,8.66 0,0.188 -0.015,0.375 -0.047,0.559 0.039,0.133 0.059,0.273 0.059,0.414 l -0.098,30.285 c -0.004,0.844 -0.777,1.523 -1.734,1.519 -0.953,0 -1.723,-0.683 -1.719,-1.531 V 93.23 c -7.277,4.262 -17.519,6.059 -27.871,4.856 -6.418,-0.75 -11.887,-2.684 -15.07,-5 z m 38.91,-16.934 c -0.828,0.008 -1.504,-0.656 -1.512,-1.48 0,-0.817 0.68,-1.477 1.516,-1.477 0.832,0 1.515,0.66 1.515,1.477 0,0.82 -0.683,1.48 -1.515,1.48 z m 0,12.188 c -0.828,0.008 -1.504,-0.656 -1.512,-1.481 0,-0.816 0.68,-1.48 1.516,-1.48 0.832,0 1.515,0.664 1.515,1.48 0,0.817 -0.683,1.481 -1.515,1.481 z m 0,12.344 c -0.828,0.007 -1.508,-0.657 -1.512,-1.485 0,-0.816 0.68,-1.48 1.516,-1.48 0.832,0 1.515,0.664 1.515,1.48 0,0.817 -0.683,1.481 -1.515,1.481 z"
         style="fill:#000000;fill-opacity:1;fill-rule:nonzero;stroke:none"
         id="path46" /><path
         d="m 432.188,186.566 c 1.808,-0.628 3.199,-1.343 4.07,-2.054 0.594,-0.485 0.781,-0.805 0.781,-0.934 0,-0.125 -0.187,-0.445 -0.781,-0.933 -0.871,-0.707 -2.258,-1.422 -4.07,-2.055 -3.969,-1.375 -9.461,-2.18 -15.348,-2.18 -5.887,0 -11.375,0.809 -15.344,2.18 -1.808,0.633 -3.203,1.348 -4.07,2.058 -0.594,0.485 -0.781,0.797 -0.781,0.93 0,0.129 0.187,0.449 0.781,0.938 0.867,0.707 2.258,1.422 4.07,2.05 3.969,1.375 9.457,2.18 15.344,2.18 5.887,0 11.379,-0.808 15.348,-2.18 z m -36.844,14.332 v 7.497 c 2.211,2.328 8.152,5.164 15.41,6.011 10.641,1.239 20.719,-1.086 27.559,-5.722 l 0.023,-7.661 c -7.285,4.286 -17.543,6.086 -27.918,4.875 -6.422,-0.746 -11.895,-2.683 -15.078,-5 z m 0,-4.679 c 2.215,2.324 8.152,5.156 15.41,6 10.664,1.242 20.762,-1.09 27.601,-5.746 l 0.028,-8.496 c -4.352,2.554 -12.367,4.265 -21.543,4.265 -9.133,0 -17.125,-1.703 -21.481,-4.234 -0.007,2.734 -0.011,5.469 -0.011,8.207 z m 0.008,16.867 0.019,6.293 -0.066,-0.434 c 1.304,4.305 9.621,7.766 22.008,7.766 6.75,0 12.035,-1.02 16.101,-3.027 1.141,-0.567 2.008,-1.043 2.859,-1.668 0.567,-0.411 0.938,-0.664 1.547,-1.2 0.629,-0.558 1.598,-0.421 2.16,0.215 0.559,0.625 0.629,1.645 0,2.207 -0.679,0.598 -1,0.864 -1.664,1.352 -0.992,0.723 -2.121,1.476 -3.421,2.121 -4.489,2.219 -9.059,3.543 -17.582,3.543 -14.196,0 -23.583,-4.492 -25.379,-10.43 l -0.063,-0.211 v -0.222 l -0.023,-8.985 c -0.012,-8.84 -0.004,-17.679 0.019,-26.519 -0.012,-0.102 -0.019,-0.207 -0.019,-0.309 0.007,-4.785 11.191,-8.66 24.992,-8.66 13.801,0 24.988,3.875 24.988,8.66 0,0.188 -0.015,0.375 -0.047,0.559 0.039,0.133 0.059,0.273 0.059,0.414 l -0.098,30.285 c -0.004,0.844 -0.777,1.523 -1.734,1.519 -0.953,0 -1.723,-0.683 -1.719,-1.531 v -1.594 c -7.277,4.262 -17.519,6.059 -27.871,4.856 -6.418,-0.75 -11.887,-2.684 -15.07,-5 z m 38.91,-16.934 c -0.828,0.008 -1.504,-0.652 -1.512,-1.48 0,-0.817 0.68,-1.477 1.516,-1.477 0.832,0 1.515,0.66 1.515,1.477 0,0.82 -0.683,1.48 -1.515,1.48 z m 0,12.188 c -0.828,0.008 -1.504,-0.656 -1.512,-1.481 0,-0.816 0.68,-1.48 1.516,-1.48 0.832,0 1.515,0.664 1.515,1.48 0,0.817 -0.683,1.481 -1.515,1.481 z m 0,12.344 c -0.828,0.007 -1.508,-0.657 -1.512,-1.485 0,-0.816 0.68,-1.48 1.516,-1.48 0.832,0 1.515,0.664 1.515,1.48 0,0.817 -0.683,1.481 -1.515,1.481 z"
         style="fill:#000000;fill-opacity:1;fill-rule:nonzero;stroke:none"
         id="path48" /><path
         d="m 484.855,272.793 c 1.809,-0.629 3.204,-1.348 4.071,-2.055 0.594,-0.488 0.781,-0.804 0.781,-0.933 0,-0.129 -0.187,-0.45 -0.781,-0.938 -0.867,-0.707 -2.258,-1.422 -4.071,-2.051 -3.964,-1.375 -9.457,-2.179 -15.343,-2.179 -5.887,0 -11.379,0.808 -15.348,2.179 -1.809,0.629 -3.199,1.344 -4.07,2.055 -0.594,0.484 -0.781,0.801 -0.781,0.934 0,0.129 0.187,0.445 0.781,0.937 0.871,0.703 2.258,1.422 4.07,2.051 3.969,1.375 9.461,2.18 15.348,2.18 5.886,0 11.379,-0.809 15.343,-2.18 z m -36.839,14.332 v 7.496 c 2.207,2.328 8.148,5.164 15.406,6.012 10.644,1.238 20.719,-1.086 27.558,-5.723 l 0.028,-7.66 c -7.289,4.285 -17.547,6.086 -27.922,4.871 -6.422,-0.742 -11.891,-2.68 -15.078,-4.996 z m 0,-4.684 c 2.211,2.325 8.148,5.161 15.406,6.004 10.664,1.243 20.762,-1.09 27.601,-5.746 l 0.032,-8.496 c -4.356,2.551 -12.371,4.262 -21.543,4.262 -9.137,0 -17.125,-1.699 -21.485,-4.235 -0.007,2.739 -0.007,5.473 -0.011,8.208 z m 0.007,16.872 0.016,6.289 -0.062,-0.434 c 1.3,4.309 9.621,7.77 22.007,7.77 6.746,0 12.032,-1.02 16.098,-3.032 1.141,-0.566 2.008,-1.043 2.859,-1.664 0.567,-0.414 0.938,-0.664 1.547,-1.199 0.629,-0.559 1.602,-0.422 2.16,0.211 0.559,0.625 0.633,1.648 0,2.211 -0.679,0.594 -1,0.863 -1.664,1.348 -0.992,0.726 -2.117,1.476 -3.421,2.125 -4.485,2.218 -9.059,3.542 -17.579,3.542 -14.199,0 -23.582,-4.492 -25.379,-10.429 l -0.066,-0.215 v -0.219 l -0.023,-8.988 c -0.012,-8.84 -0.004,-17.68 0.019,-26.52 -0.012,-0.101 -0.015,-0.203 -0.015,-0.304 0.003,-4.785 11.187,-8.664 24.988,-8.664 13.801,0 24.988,3.879 24.988,8.664 0,0.187 -0.016,0.371 -0.047,0.558 0.043,0.133 0.063,0.274 0.059,0.41 l -0.098,30.29 c 0,0.839 -0.777,1.523 -1.73,1.519 -0.953,0 -1.727,-0.687 -1.719,-1.535 v -1.59 c -7.281,4.262 -17.523,6.059 -27.875,4.852 -6.414,-0.75 -11.887,-2.68 -15.07,-4.996 z m 38.907,-16.934 c -0.828,0.008 -1.504,-0.656 -1.512,-1.481 0,-0.82 0.68,-1.476 1.516,-1.476 0.836,0 1.515,0.656 1.515,1.476 0,0.821 -0.679,1.481 -1.515,1.481 z m 0,12.187 c -0.828,0.008 -1.504,-0.656 -1.512,-1.48 0,-0.82 0.68,-1.484 1.516,-1.484 0.836,0 1.515,0.664 1.515,1.484 0,0.816 -0.679,1.48 -1.515,1.48 z m 0,12.344 c -0.828,0.008 -1.504,-0.656 -1.512,-1.484 0,-0.821 0.68,-1.485 1.516,-1.485 0.836,0 1.515,0.664 1.515,1.485 0,0.816 -0.679,1.48 -1.515,1.48 z"
         style="fill:#000000;fill-opacity:1;fill-rule:nonzero;stroke:none"
         id="path50" /><path
         d="m 438.34,406.313 c 1.808,-0.633 3.203,-1.348 4.07,-2.059 0.598,-0.484 0.781,-0.805 0.781,-0.93 0,-0.129 -0.183,-0.449 -0.781,-0.937 -0.867,-0.707 -2.258,-1.422 -4.07,-2.051 -3.965,-1.375 -9.457,-2.18 -15.344,-2.18 -5.887,0 -11.379,0.809 -15.348,2.18 -1.808,0.629 -3.199,1.344 -4.07,2.055 -0.594,0.484 -0.781,0.8 -0.781,0.933 0,0.125 0.187,0.446 0.781,0.934 0.871,0.707 2.258,1.422 4.07,2.055 3.969,1.375 9.461,2.179 15.348,2.179 5.887,0 11.379,-0.808 15.344,-2.179 z m -36.84,14.332 v 7.496 c 2.207,2.328 8.148,5.164 15.406,6.007 10.645,1.243 20.719,-1.082 27.559,-5.718 l 0.027,-7.664 c -7.289,4.289 -17.547,6.089 -27.922,4.875 -6.422,-0.746 -11.89,-2.68 -15.074,-4.996 z m 0,-4.684 c 2.211,2.324 8.148,5.16 15.406,6.004 10.664,1.242 20.762,-1.09 27.602,-5.75 l 0.031,-8.496 c -4.355,2.554 -12.371,4.265 -21.543,4.265 -9.137,0 -17.125,-1.703 -21.484,-4.234 -0.004,2.734 -0.008,5.473 -0.012,8.207 z m 0.008,16.871 0.015,6.289 -0.062,-0.433 c 1.301,4.308 9.621,7.769 22.008,7.769 6.746,0 12.031,-1.023 16.097,-3.031 1.141,-0.567 2.008,-1.043 2.86,-1.664 0.566,-0.414 0.937,-0.664 1.547,-1.199 0.629,-0.559 1.601,-0.422 2.16,0.21 0.558,0.625 0.633,1.649 0,2.211 -0.68,0.594 -1,0.864 -1.664,1.348 -0.989,0.723 -2.117,1.477 -3.422,2.125 -4.484,2.219 -9.059,3.543 -17.578,3.543 -14.199,0 -23.582,-4.492 -25.379,-10.43 l -0.067,-0.215 v -0.222 L 398,430.148 c -0.012,-8.839 -0.004,-17.679 0.02,-26.519 -0.012,-0.102 -0.016,-0.203 -0.016,-0.305 0.004,-4.785 11.191,-8.664 24.988,-8.664 13.801,0 24.988,3.879 24.988,8.664 0,0.184 -0.015,0.371 -0.046,0.555 0.043,0.137 0.062,0.273 0.058,0.414 l -0.097,30.285 c 0,0.844 -0.778,1.527 -1.731,1.524 -0.953,0 -1.726,-0.688 -1.719,-1.536 v -1.589 c -7.281,4.257 -17.523,6.054 -27.875,4.851 -6.414,-0.75 -11.882,-2.683 -15.07,-4.996 z m 38.906,-16.934 c -0.828,0.008 -1.504,-0.656 -1.512,-1.484 0,-0.816 0.68,-1.476 1.516,-1.476 0.836,0 1.516,0.66 1.516,1.476 0,0.824 -0.68,1.484 -1.516,1.484 z m 0,12.188 c -0.828,0.004 -1.504,-0.656 -1.512,-1.484 0,-0.817 0.68,-1.481 1.516,-1.481 0.836,0 1.516,0.664 1.516,1.481 0,0.82 -0.68,1.484 -1.516,1.484 z m 0,12.344 c -0.828,0.008 -1.504,-0.66 -1.512,-1.489 0,-0.816 0.68,-1.48 1.516,-1.48 0.836,0 1.516,0.664 1.516,1.48 0,0.821 -0.68,1.485 -1.516,1.485 z"
         style="fill:#000000;fill-opacity:1;fill-rule:nonzero;stroke:none"
         id="path52" /><path
         d="m 233.922,403.43 c 1.808,-0.629 3.199,-1.344 4.066,-2.055 0.598,-0.484 0.785,-0.805 0.785,-0.934 0,-0.125 -0.187,-0.445 -0.785,-0.933 -0.867,-0.707 -2.254,-1.422 -4.066,-2.055 -3.969,-1.375 -9.461,-2.176 -15.348,-2.176 -5.886,0 -11.379,0.809 -15.344,2.176 -1.812,0.633 -3.203,1.348 -4.07,2.059 -0.597,0.484 -0.785,0.801 -0.785,0.929 0,0.129 0.188,0.45 0.785,0.938 0.867,0.707 2.254,1.422 4.07,2.051 3.965,1.375 9.458,2.179 15.344,2.179 5.887,0 11.379,-0.808 15.348,-2.179 z m -36.844,14.336 v 7.496 c 2.207,2.328 8.152,5.16 15.41,6.008 10.641,1.238 20.715,-1.086 27.559,-5.719 l 0.023,-7.664 c -7.285,4.289 -17.547,6.086 -27.918,4.875 -6.425,-0.746 -11.894,-2.684 -15.078,-4.996 z m 0,-4.684 c 2.215,2.324 8.152,5.16 15.41,6 10.664,1.246 20.758,-1.09 27.602,-5.746 l 0.027,-8.496 c -4.355,2.555 -12.371,4.265 -21.543,4.265 -9.136,0 -17.125,-1.703 -21.484,-4.234 -0.004,2.734 -0.008,5.469 -0.012,8.207 z m 0.008,16.867 0.016,6.293 -0.063,-0.433 c 1.305,4.308 9.621,7.769 22.008,7.769 6.746,0 12.035,-1.023 16.098,-3.031 1.14,-0.567 2.011,-1.043 2.863,-1.664 0.566,-0.414 0.933,-0.664 1.543,-1.203 0.633,-0.555 1.601,-0.422 2.164,0.215 0.558,0.625 0.629,1.648 0,2.207 -0.684,0.597 -1,0.867 -1.664,1.351 -0.992,0.723 -2.121,1.477 -3.422,2.125 -4.488,2.215 -9.059,3.539 -17.582,3.539 -14.195,0 -23.582,-4.488 -25.379,-10.429 l -0.063,-0.211 v -0.223 l -0.027,-8.984 c -0.012,-8.84 -0.004,-17.68 0.02,-26.52 -0.008,-0.102 -0.016,-0.203 -0.016,-0.309 0.004,-4.781 11.191,-8.66 24.992,-8.66 13.801,0 24.985,3.879 24.985,8.66 0.004,0.188 -0.012,0.375 -0.047,0.559 0.043,0.133 0.062,0.273 0.062,0.414 l -0.097,30.285 c -0.004,0.844 -0.782,1.524 -1.735,1.52 -0.953,0 -1.722,-0.684 -1.719,-1.531 v -1.594 c -7.281,4.261 -17.519,6.058 -27.875,4.855 -6.414,-0.75 -11.882,-2.683 -15.066,-5 z m 38.906,-16.929 c -0.824,0.003 -1.5,-0.657 -1.512,-1.485 0,-0.816 0.684,-1.476 1.516,-1.476 0.836,0 1.516,0.66 1.516,1.476 0,0.824 -0.68,1.485 -1.516,1.485 z m 0,12.183 c -0.824,0.008 -1.5,-0.652 -1.512,-1.48 0,-0.817 0.684,-1.481 1.516,-1.481 0.836,0 1.516,0.664 1.516,1.481 0,0.816 -0.68,1.48 -1.516,1.48 z m 0,12.348 c -0.828,0.004 -1.504,-0.66 -1.512,-1.488 0,-0.817 0.684,-1.481 1.516,-1.481 0.836,0 1.516,0.664 1.516,1.481 0,0.82 -0.68,1.484 -1.516,1.484 z"
         style="fill:#000000;fill-opacity:1;fill-rule:nonzero;stroke:none"
         id="path54" /><path
         d="m 69.508,426.16 c 1.808,-0.629 3.199,-1.344 4.066,-2.055 0.598,-0.484 0.785,-0.804 0.785,-0.933 0,-0.125 -0.187,-0.445 -0.785,-0.934 -0.867,-0.707 -2.254,-1.422 -4.066,-2.054 -3.969,-1.375 -9.461,-2.18 -15.348,-2.18 -5.887,0 -11.379,0.812 -15.344,2.18 -1.808,0.632 -3.203,1.347 -4.07,2.058 -0.598,0.485 -0.785,0.801 -0.785,0.93 0,0.129 0.187,0.449 0.785,0.937 0.867,0.707 2.254,1.422 4.07,2.051 3.965,1.375 9.457,2.18 15.344,2.18 5.887,0 11.379,-0.809 15.348,-2.18 z m -36.844,14.336 v 7.496 c 2.211,2.328 8.152,5.16 15.41,6.008 10.641,1.238 20.719,-1.086 27.559,-5.719 l 0.023,-7.664 c -7.285,4.285 -17.547,6.086 -27.918,4.875 -6.425,-0.746 -11.894,-2.683 -15.078,-4.996 z m 0,-4.683 c 2.215,2.324 8.152,5.16 15.41,6 10.664,1.246 20.758,-1.09 27.602,-5.747 l 0.027,-8.496 c -4.355,2.555 -12.367,4.266 -21.543,4.266 -9.133,0 -17.125,-1.703 -21.484,-4.234 -0.004,2.734 -0.008,5.468 -0.012,8.207 z m 0.008,16.867 0.019,6.293 -0.066,-0.434 c 1.305,4.309 9.621,7.77 22.008,7.77 6.746,0 12.035,-1.024 16.097,-3.032 1.145,-0.566 2.012,-1.043 2.864,-1.664 0.566,-0.414 0.937,-0.664 1.543,-1.203 0.633,-0.555 1.601,-0.422 2.164,0.215 0.558,0.625 0.629,1.648 0,2.207 -0.68,0.598 -1,0.867 -1.664,1.352 -0.992,0.722 -2.121,1.476 -3.422,2.125 -4.488,2.214 -9.059,3.539 -17.582,3.539 -14.195,0 -23.582,-4.489 -25.379,-10.43 l -0.063,-0.211 v -0.223 L 29.164,450 c -0.008,-8.84 -0.004,-17.68 0.02,-26.52 -0.008,-0.101 -0.016,-0.203 -0.016,-0.308 0.004,-4.781 11.191,-8.66 24.992,-8.66 13.801,0 24.988,3.879 24.988,8.66 0,0.187 -0.015,0.375 -0.046,0.558 0.039,0.133 0.058,0.274 0.058,0.415 l -0.097,30.285 c -0.004,0.843 -0.782,1.523 -1.735,1.519 -0.953,0 -1.723,-0.683 -1.719,-1.531 v -1.594 c -7.277,4.262 -17.519,6.059 -27.875,4.856 -6.414,-0.75 -11.882,-2.684 -15.066,-5 z m 38.906,-16.934 c -0.824,0.008 -1.5,-0.652 -1.512,-1.48 0,-0.817 0.684,-1.477 1.516,-1.477 0.836,0 1.516,0.66 1.516,1.477 0,0.824 -0.68,1.48 -1.516,1.48 z m 0,12.188 c -0.824,0.007 -1.5,-0.653 -1.512,-1.481 0,-0.816 0.684,-1.48 1.516,-1.48 0.836,0 1.516,0.664 1.516,1.48 0,0.817 -0.68,1.481 -1.516,1.481 z m 0,12.347 c -0.828,0.004 -1.504,-0.66 -1.512,-1.488 0,-0.816 0.684,-1.48 1.516,-1.48 0.836,0 1.516,0.664 1.516,1.48 0,0.816 -0.68,1.48 -1.516,1.48 z"
         style="fill:#000000;fill-opacity:1;fill-rule:nonzero;stroke:none"
         id="path56" /><path
         d="m 65.762,278.719 c 1.812,-0.633 3.203,-1.348 4.07,-2.059 0.598,-0.484 0.785,-0.805 0.785,-0.93 0,-0.128 -0.187,-0.449 -0.785,-0.937 -0.867,-0.707 -2.254,-1.422 -4.07,-2.051 -3.965,-1.375 -9.457,-2.179 -15.344,-2.179 -5.887,0 -11.379,0.808 -15.344,2.179 -1.812,0.629 -3.203,1.344 -4.07,2.055 -0.598,0.484 -0.785,0.801 -0.785,0.933 0,0.125 0.187,0.446 0.785,0.938 0.867,0.703 2.254,1.418 4.07,2.051 3.965,1.375 9.457,2.179 15.344,2.179 5.887,0 11.379,-0.808 15.344,-2.179 z m -36.84,14.332 v 7.496 c 2.207,2.328 8.152,5.164 15.41,6.012 10.641,1.238 20.715,-1.086 27.559,-5.723 l 0.023,-7.664 c -7.289,4.289 -17.547,6.09 -27.918,4.875 -6.426,-0.742 -11.894,-2.68 -15.078,-4.996 z m 0,-4.684 c 2.215,2.324 8.152,5.16 15.41,6.004 10.66,1.242 20.758,-1.09 27.598,-5.746 l 0.031,-8.5 c -4.356,2.555 -12.371,4.266 -21.543,4.266 -9.137,0 -17.125,-1.703 -21.484,-4.235 -0.004,2.735 -0.008,5.473 -0.012,8.207 z m 0.008,16.871 0.015,6.289 -0.062,-0.433 c 1.305,4.308 9.621,7.769 22.008,7.769 6.746,0 12.035,-1.023 16.097,-3.031 1.141,-0.566 2.012,-1.043 2.864,-1.664 0.566,-0.414 0.933,-0.664 1.543,-1.199 0.628,-0.559 1.601,-0.422 2.164,0.211 0.554,0.625 0.629,1.648 0,2.211 -0.684,0.593 -1,0.863 -1.664,1.347 -0.993,0.723 -2.122,1.477 -3.422,2.125 -4.489,2.219 -9.059,3.543 -17.582,3.543 -14.196,0 -23.582,-4.492 -25.379,-10.429 l -0.063,-0.215 v -0.219 l -0.027,-8.988 c -0.012,-8.84 -0.004,-17.68 0.019,-26.52 -0.011,-0.101 -0.015,-0.203 -0.015,-0.305 0.004,-4.785 11.191,-8.664 24.992,-8.664 13.801,0 24.984,3.879 24.984,8.664 0.004,0.188 -0.011,0.372 -0.047,0.559 0.043,0.133 0.063,0.27 0.063,0.41 l -0.098,30.289 c -0.004,0.84 -0.781,1.524 -1.734,1.52 -0.953,0 -1.723,-0.688 -1.719,-1.535 v -1.59 c -7.281,4.262 -17.519,6.055 -27.875,4.851 -6.414,-0.75 -11.883,-2.679 -15.066,-4.996 z m 38.906,-16.933 c -0.824,0.008 -1.5,-0.657 -1.512,-1.481 0,-0.82 0.684,-1.48 1.516,-1.48 0.836,0 1.515,0.66 1.515,1.48 0,0.821 -0.679,1.481 -1.515,1.481 z m 0,12.187 c -0.824,0.008 -1.5,-0.656 -1.512,-1.484 0,-0.817 0.684,-1.481 1.516,-1.481 0.836,0 1.515,0.664 1.515,1.481 0,0.82 -0.679,1.484 -1.515,1.484 z m 0,12.344 c -0.828,0.008 -1.504,-0.66 -1.512,-1.484 0,-0.821 0.684,-1.485 1.516,-1.485 0.836,0 1.515,0.664 1.515,1.485 0,0.816 -0.679,1.48 -1.515,1.48 z"
         style="fill:#000000;fill-opacity:1;fill-rule:nonzero;stroke:none"
         id="path58" /><path
         d="m 290.762,290.223 c 1.812,-0.629 3.203,-1.344 4.07,-2.055 0.598,-0.484 0.785,-0.805 0.785,-0.934 0,-0.129 -0.187,-0.445 -0.785,-0.937 -0.867,-0.707 -2.254,-1.422 -4.07,-2.051 -3.965,-1.375 -9.457,-2.18 -15.344,-2.18 -5.887,0 -11.379,0.809 -15.344,2.18 -1.812,0.629 -3.203,1.344 -4.07,2.055 -0.598,0.488 -0.785,0.801 -0.785,0.933 0,0.129 0.187,0.45 0.785,0.938 0.867,0.707 2.254,1.422 4.07,2.051 3.965,1.375 9.457,2.179 15.344,2.179 5.887,0 11.379,-0.808 15.344,-2.179 z m -36.84,14.332 v 7.496 c 2.207,2.328 8.152,5.164 15.41,6.012 10.641,1.238 20.715,-1.086 27.559,-5.723 l 0.023,-7.66 c -7.289,4.285 -17.547,6.086 -27.918,4.875 -6.426,-0.746 -11.894,-2.684 -15.078,-5 z m 0,-4.684 c 2.215,2.324 8.152,5.16 15.41,6.004 10.66,1.242 20.758,-1.09 27.598,-5.746 l 0.031,-8.496 c -4.356,2.555 -12.371,4.265 -21.543,4.265 -9.137,0 -17.125,-1.703 -21.484,-4.238 -0.004,2.738 -0.008,5.473 -0.012,8.207 z m 0.008,16.871 0.015,6.293 -0.062,-0.433 c 1.305,4.304 9.621,7.765 22.008,7.765 6.746,0 12.035,-1.019 16.097,-3.031 1.141,-0.566 2.012,-1.043 2.864,-1.664 0.566,-0.41 0.933,-0.664 1.543,-1.199 0.628,-0.559 1.601,-0.422 2.164,0.215 0.558,0.625 0.629,1.644 0,2.207 -0.684,0.597 -1,0.863 -1.664,1.351 -0.993,0.723 -2.122,1.477 -3.422,2.121 -4.489,2.219 -9.059,3.543 -17.582,3.543 -14.196,0 -23.582,-4.492 -25.379,-10.43 l -0.063,-0.21 v -0.223 l -0.027,-8.984 c -0.012,-8.84 -0.004,-17.68 0.019,-26.52 -0.011,-0.105 -0.015,-0.207 -0.015,-0.309 0.004,-4.785 11.191,-8.664 24.992,-8.664 13.801,0 24.984,3.879 24.984,8.664 0.004,0.188 -0.011,0.375 -0.047,0.559 0.043,0.133 0.063,0.273 0.063,0.414 l -0.098,30.285 c -0.004,0.844 -0.781,1.524 -1.734,1.52 -0.953,0 -1.723,-0.684 -1.719,-1.532 v -1.593 c -7.281,4.261 -17.519,6.058 -27.875,4.851 -6.414,-0.746 -11.883,-2.679 -15.066,-4.996 z m 38.906,-16.933 c -0.824,0.007 -1.5,-0.657 -1.512,-1.481 0,-0.816 0.684,-1.476 1.516,-1.476 0.836,0 1.515,0.66 1.515,1.476 0,0.82 -0.679,1.481 -1.515,1.481 z m 0,12.187 c -0.824,0.008 -1.5,-0.656 -1.512,-1.48 0,-0.817 0.684,-1.481 1.516,-1.481 0.836,0 1.515,0.664 1.515,1.481 0,0.816 -0.679,1.48 -1.515,1.48 z m 0,12.344 c -0.828,0.008 -1.504,-0.656 -1.512,-1.485 0,-0.816 0.684,-1.48 1.516,-1.48 0.836,0 1.515,0.664 1.515,1.48 0,0.817 -0.679,1.481 -1.515,1.481 z"
         style="fill:#000000;fill-opacity:1;fill-rule:nonzero;stroke:none"
         id="path60" /></g></g></svg>
